<svg xmlns="http://www.w3.org/2000/svg" viewBox="0 0 64 64"><g data-name="28-Flag"><path d="M6 8v55H2V6.23a2.982 2.982 0 0 0 4 0z" style="fill:#ffab02"/><path d="M6 6.23a2.982 2.982 0 0 1-4 0A2.94 2.94 0 0 1 1 4a3 3 0 0 1 6 0 2.94 2.94 0 0 1-1 2.23z" style="fill:#ffcb02"/><path style="fill:#422b57" d="M42 34 26 50V34h16z"/><path style="fill:#774e9d" d="M63 24 50 37l13 13H26l16-16V24h21z"/><path style="fill:#b466c2" d="M42 24v10H6V8h36v16z"/><path d="M5 9h1V6.23a2.982 2.982 0 0 1-4 0V63h2V10a1 1 0 0 1 1-1z" style="fill:#ff9102"/><path d="M12 14.1V8H6v26h36v-5H26.9A14.9 14.9 0 0 1 12 14.1z" style="fill:#9c59a9"/><path d="M59 46H39.828a2 2 0 0 1-1.414-3.414L41 40v-5L30 46l-4 4h37z" style="fill:#593a75"/><path d="m51.414 37 12.293-12.293A1 1 0 0 0 63 23H49v2h11.586L49.293 36.293a1 1 0 0 0 0 1.414L60.586 49H28.414l14.292-14.292A1 1 0 0 0 43 34V8a1 1 0 0 0-1-1H7v-.382A3.962 3.962 0 0 0 8 4a4 4 0 0 0-8 0 3.962 3.962 0 0 0 1 2.618V10h2V7.858A3.939 3.939 0 0 0 4 8a3.939 3.939 0 0 0 1-.142V63h2V35h32.586L27 47.586V37h-2v13a1 1 0 0 0 1 1h37a1 1 0 0 0 .707-1.707zM2 4a2 2 0 1 1 2 2 2 2 0 0 1-2-2zm5 5h34v24H7z"/><path d="M45 23h2v2h-2zM1 12h2v51H1z"/></g></svg>